# xmcd
#
# Track frame offsets:
#	150
#	14601
#	25086
#	39068
#	54210
#	71202
#	82407
#	97092
#	110996
#	128563
#	143937
#	155399
#	170298
#	180758
#	193934
#	213174
#	225210
#	242836
#
# Disc length: 3495 seconds
#
# Revision: 0
# Processed by: cddbd v1.5.2PL0 Copyright (c) Steve Scherf et al.
# Submitted via: EasyCDDAExtractor 16.0.6.1
#
DISCID=ee0da512
DTITLE=Γλυκερία - Εκατόν σαράντα μεγ. επιτυχίες-Γλυκερία 4
DYEAR=2010
DGENRE=Ποικίλη
TTITLE0=Τι σε μέλει εσένα [παραδ., διασκ. Στέλ. Φωτιάδης]
TTITLE1=Γιατί θες να φύγεις [Στράτος Ατταλίδης-Κώστας Βίρβος]
TTITLE2=Βάλε με στην αγκαλιά σου [Βαγγέλης Παπάζογλου]
TTITLE3=Κάτσε στον καναπέ μου [Στέλ. Χρυσίνης-Χαράλ. Βασιλειάδης]
TTITLE4=Τα καβουράκια [Βασ. Τσιτσάνης]
TTITLE5=Στην καλύβα την δική μου [Γιώργος Μητσάκης]
TTITLE6=Αχ, ας μπορούσα [Στράτος Ατταλίδης-Γιώργος Κοινούσης]
TTITLE7=Θεσσαλονίκη μου [Μαν. Χιώτης-Χρ. Κολοκοτρώνης]
TTITLE8=Θα πεθάνω από έρωτα [Χρ. Νικολόπουλος-Λ. Παπαδόπουλος]
TTITLE9=Και ό,τι πω [Στέλ. Φωτιάδης-Χρ. Προμοίρας]
TTITLE10=Δυό και δυό [Χρ. Νικολόπουλος-Λ. Παπαδόπουλος]
TTITLE11=Είναι η αγάπη μου τρελλή [Χρ. Νικολόπουλος-Λ. Παπαδόπουλος]
TTITLE12=Παραπονάκι μου [Στέλ. Φωτιάδης-Πάνος Φαλάρας]
TTITLE13=Εσένα ή τίποτα [Αντ. Στεφανίδης-Πάνος Φαλάρας]
TTITLE14=Κι εσύ χορεύεις σαν βροχή [Μάριος Τόκας-Σαράντης Αλιβιζάτος]
TTITLE15=Φύσα, Βαρδάρη μου [Στέλ. Φωτιάδης-Χρ. Προμοίρας]
TTITLE16=Χιλιάδες γιατί [Στέλ. Φωτιάδης-Πάνος Φαλάρας]
TTITLE17=Μάννα μου είναι η Ανατολή [Δομέν. Βαμβακάρης-Πάνος Φαλάρας]
EXTD=
EXTT0=
EXTT1=
EXTT2=
EXTT3=
EXTT4=
EXTT5=
EXTT6=
EXTT7=
EXTT8=
EXTT9=
EXTT10=
EXTT11=
EXTT12=
EXTT13=
EXTT14=
EXTT15=
EXTT16=
EXTT17=
PLAYORDER=
